# xmcd CD database file
# Copyright (C) 1993-1996 Ti Kan
#
# Track frame offsets:
#	150
#	15527
#	32553
#	53558
#	75980
#	91965
#	110935
#	128858
#	142943
#	159980
#	176685
#	196943
#
# Disc length: 2945 seconds
#
# Revision: 1
# Processed by: cddbd v1.4b41PL1 Copyright (c) Steve Scherf et al.
# Submitted via: CDValet v3.30 - Copyright (c) 1997 Greg Leichner
#
DISCID=8e0b7f0c
DTITLE=Integrity Music - Scripture Memory Songs (00842):  Count
DTITLE=ry Collection  (Scripture Songs Set to Today's Country M
DTITLE=usic)
DYEAR=1900
DGENRE=
TTITLE0=James 1:5-6 -- Let Him Ask In Faith
TTITLE1=Psalms 32:8 -- The Way You Should Go
TTITLE2=Hebrews 13:5-6 -- The Lord Is My Helper
TTITLE3=Psalms 73:25-26 -- The Strength Of My Heart
TTITLE4=Psalms 59:16-17 -- I Will Sing Of Your Strength
TTITLE5=Proverbs 9:10-11 -- The Fear of the Lord
TTITLE6=Isaiah 54:10 -- Though the Mountains Be Shaken
TTITLE7=Psalms 89:1 -- I Will Sing
TTITLE8=Prov.3:1-2 and 2:7 -- Do Not Forget
TTITLE9=Psalm 118:28-29 -- You Are My God
TTITLE10=Psalms 84:11-12 -- No Good Thing
TTITLE11=Hebrews 12:1-2 -- Fix Our Eyes On Jesus
EXTD=
EXTT0=
EXTT1=
EXTT2=
EXTT3=
EXTT4=
EXTT5=
EXTT6=
EXTT7=
EXTT8=
EXTT9=
EXTT10=
EXTT11=
PLAYORDER=
